<?xml version="1.0" encoding="UTF-8"?>
<svg version="1.1" xmlns="http://www.w3.org/2000/svg" width="525" height="314">
<path d="M0 0 C173.25 0 346.5 0 525 0 C525 103.62 525 207.24 525 314 C351.75 314 178.5 314 0 314 C0 210.38 0 106.76 0 0 Z " fill="#FEFEFE" transform="translate(0,0)"/>
<path d="M0 0 C1.0873835 0.97466692 2.17250668 1.95191052 3.25 2.9375 C7.51411128 -0.2069843 11.68060154 -3.41903552 15.75 -6.8125 C38.47316495 -25.01882788 67.88563218 -38.07295723 96.62768555 -42.62670898 C99.09622669 -43.03694508 101.53241941 -43.52586004 103.98046875 -44.04296875 C148.07568407 -52.90025642 192.79789736 -44.37595519 235.25 -32.0625 C234.01574477 -28.35973431 232.62754451 -27.5589943 229.5625 -25.1875 C224.92599237 -21.49513206 220.5583654 -17.63134749 216.25 -13.5625 C211.23103024 -8.83683334 206.11961915 -4.3670505 200.71875 -0.078125 C197.68888687 2.39562401 194.87880716 5.06753695 192.1015625 7.8203125 C190.25 8.9375 190.25 8.9375 188.0859375 8.8828125 C183.96032242 7.50760747 180.1461952 5.6076437 176.25 3.6875 C131.73241602 -17.709267 78.32827311 -22.0467928 31.30859375 -6.09765625 C20.832293 -2.41471972 20.832293 -2.41471972 10.73828125 2.18359375 C7.25 3.9375 7.25 3.9375 5.25 3.9375 C5.25 4.5975 5.25 5.2575 5.25 5.9375 C4.26 5.9375 3.27 5.9375 2.25 5.9375 C2.25 5.2775 2.25 4.6175 2.25 3.9375 C0.991875 3.545625 -0.26625 3.15375 -1.5625 2.75 C-5.04516979 1.59985905 -8.27187614 0.23907183 -11.5625 -1.375 C-19.22425454 -4.96135319 -27.39258802 -7.11337116 -35.5090332 -9.421875 C-37.44731391 -9.97597115 -39.37868158 -10.55414373 -41.30859375 -11.13671875 C-55.0016026 -14.8203091 -68.96455701 -15.35912852 -83.0625 -15.375 C-83.77080963 -15.37840393 -84.47911926 -15.38180786 -85.20889282 -15.38531494 C-95.53720149 -15.41371446 -105.53311875 -14.5388864 -115.75 -13.0625 C-116.56251221 -12.9581665 -117.37502441 -12.85383301 -118.2121582 -12.74633789 C-137.82888092 -10.2224214 -156.91726996 -2.99151698 -174.29296875 6.296875 C-179.32791855 8.97484466 -179.32791855 8.97484466 -181.6484375 8.76953125 C-190.28841584 5.34887068 -197.99094218 -3.97149156 -204.7578125 -10.28125 C-209.34408389 -14.55605498 -214.04103607 -18.67730212 -218.90234375 -22.63671875 C-219.45462646 -23.08901855 -220.00690918 -23.54131836 -220.57592773 -24.00732422 C-221.67642072 -24.90639986 -222.78130153 -25.80013608 -223.89086914 -26.68798828 C-225.21429653 -27.76898987 -226.48720477 -28.91125168 -227.75 -30.0625 C-227.75 -30.7225 -227.75 -31.3825 -227.75 -32.0625 C-152.32990126 -56.82206676 -62.35428126 -54.20694486 0 0 Z " fill="#2C3E8F" transform="translate(255.75,250.0625)"/>
<path d="M0 0 C15.89693448 -0.45564462 31.2568434 0.81495178 47 3 C48.29478271 3.17619873 48.29478271 3.17619873 49.61572266 3.35595703 C61.03511859 4.94952295 71.98426203 7.61664629 83 11 C84.08982178 11.33040283 84.08982178 11.33040283 85.20166016 11.66748047 C134.79215614 26.87258244 179.41014024 56.80337926 206 102 C206.58910156 102.9075 207.17820313 103.815 207.78515625 104.75 C208.18605469 105.4925 208.58695313 106.235 209 107 C208.67 107.66 208.34 108.32 208 109 C207.21238281 108.17757812 206.42476562 107.35515625 205.61328125 106.5078125 C180.82053942 80.9491974 148.93563142 63.72702447 114.4375 55.25 C113.63570313 55.05108154 112.83390625 54.85216309 112.0078125 54.6472168 C98.13275031 51.42325647 84.3929446 50.6710503 70.2097168 50.73925781 C67.56861351 50.74997519 64.92819221 50.73929415 62.28710938 50.7265625 C51.38634567 50.71895209 40.79024616 51.45589828 30 53 C28.71484375 50.796875 28.71484375 50.796875 27.4296875 48.59375 C26.58905762 47.15286011 26.58905762 47.15286011 25.73144531 45.68286133 C24.4829541 43.54233267 23.23491484 41.40154035 21.98730469 39.26049805 C18.67645021 33.58018369 15.35828461 27.90454822 12.0234375 22.23828125 C11.39066895 21.160625 10.75790039 20.08296875 10.10595703 18.97265625 C8.88834442 16.89941531 7.66805543 14.82774339 6.44482422 12.7578125 C5.89068848 11.81292969 5.33655273 10.86804688 4.765625 9.89453125 C4.03520996 8.65473511 4.03520996 8.65473511 3.29003906 7.38989258 C1.98960877 4.98074949 0.96501761 2.5598032 0 0 Z " fill="#2AAAE1" transform="translate(48,135)"/>
<path d="M0 0 C1.5778125 0.00676758 1.5778125 0.00676758 3.1875 0.01367188 C5.75006221 0.02531989 8.31249877 0.04167447 10.875 0.0625 C6.17697451 9.87857312 0.94935479 19.24694847 -4.640625 28.57763672 C-7.53028772 33.41497014 -10.38636549 38.27223067 -13.25 43.125 C-14.37740247 45.0326713 -15.50498945 46.94023357 -16.6328125 48.84765625 C-17.11379395 49.66113525 -17.59477539 50.47461426 -18.09033203 51.31274414 C-18.43177246 51.89016357 -18.77321289 52.46758301 -19.125 53.0625 C-20.05570313 52.918125 -20.98640625 52.77375 -21.9453125 52.625 C-46.65303148 49.23728716 -73.65497269 49.14645892 -98.125 54.0625 C-98.87394531 54.20703613 -99.62289062 54.35157227 -100.39453125 54.50048828 C-116.58625478 57.70126025 -131.59024744 63.27286404 -146.125 71.0625 C-147.09050781 71.5678125 -148.05601562 72.073125 -149.05078125 72.59375 C-163.64580981 80.35574539 -176.74226801 89.83602433 -188.890625 101.01171875 C-191.90259325 103.7762001 -195.00687761 106.4188745 -198.125 109.0625 C-194.81860635 99.74448154 -189.07667216 91.8529886 -183.125 84.0625 C-182.17560547 82.80179688 -182.17560547 82.80179688 -181.20703125 81.515625 C-154.55372071 47.49012218 -116.82055171 25.22631796 -76.125 12.0625 C-75.27212402 11.78567383 -74.41924805 11.50884766 -73.54052734 11.22363281 C-50.19297768 3.84040997 -24.47478 -0.20239958 0 0 Z " fill="#2AAAE1" transform="translate(460.125,134.9375)"/>
<path d="M0 0 C47.98390173 15.55230443 96.8667809 43.59948431 126 86 C126.44537109 86.64404785 126.89074219 87.2880957 127.34960938 87.95166016 C140.60778952 107.31317496 152.18353187 129.59607045 156 153 C155.53320313 155.20361328 155.53320313 155.20361328 155 157 C154.09121094 155.29457031 154.09121094 155.29457031 153.1640625 153.5546875 C146.02660927 140.33004124 138.37199128 128.26218209 128.078125 117.23046875 C126.16973109 115.18217378 124.36375274 113.07964403 122.5625 110.9375 C95.37672627 80.06134974 56.18402278 65.70319454 17 58 C15.33323253 57.6671711 13.66653894 57.33397131 12 57 C11.74307373 55.79053711 11.48614746 54.58107422 11.22143555 53.33496094 C10.25630167 48.79446224 9.28834133 44.25456977 8.31958008 39.71484375 C7.902808 37.75992674 7.48677537 35.80485192 7.0715332 33.84960938 C4.0305513 19.44310569 4.0305513 19.44310569 0.49145508 5.15332031 C0 3 0 3 0 0 Z " fill="#F8AD43" transform="translate(96,68)"/>
<path d="M0 0 C-0.64360437 9.7332784 -2.82836629 19.06535628 -4.9375 28.5625 C-5.3019477 30.22319427 -5.66588365 31.88400093 -6.02929688 33.54492188 C-7.6705109 41.03342324 -9.33611111 48.51651044 -11 56 C-11.62244095 56.10024475 -12.2448819 56.2004895 -12.88618469 56.30377197 C-49.35469432 62.21386366 -82.90826548 75.52240676 -111 100 C-111.96421875 100.83015625 -112.9284375 101.6603125 -113.921875 102.515625 C-130.9265782 117.43241945 -143.88432867 135.83989447 -154 156 C-154.33 156 -154.66 156 -155 156 C-152.78410778 115.3753093 -122.61705196 77.4037351 -94 51 C-89.5261296 47.07306925 -84.82455849 43.48258496 -80 40 C-79.37657715 39.54818359 -78.7531543 39.09636719 -78.11083984 38.63085938 C-57.8014391 24.03299908 -35.97800705 12.70847918 -12.8125 3.3125 C-11.56569458 2.80372314 -11.56569458 2.80372314 -10.29370117 2.28466797 C-9.5226001 1.98061035 -8.75149902 1.67655273 -7.95703125 1.36328125 C-7.28647705 1.09813721 -6.61592285 0.83299316 -5.92504883 0.55981445 C-4 0 -4 0 0 0 Z " fill="#F8AD44" transform="translate(422,69)"/>
<path d="M0 0 C0.33 0.66 0.66 1.32 1 2 C1.66 2 2.32 2 3 2 C1.4169423 6.2742558 -1.50568404 8.26531794 -5 11 C-3.55049545 7.2089881 -1.84827434 3.6125362 0 0 Z " fill="#54BAE4" transform="translate(267,233)"/>
<path d="M0 0 C173.25 0 346.5 0 525 0 C525 103.62 525 207.24 525 314 C351.75 314 178.5 314 0 314 C0 210.38 0 106.76 0 0 Z " fill="none" transform="translate(0,0)"/>
</svg>
